<svg xmlns="http://www.w3.org/2000/svg" width="300" height="100" viewBox="0 0 300 100">
    <g fill="none" fill-rule="evenodd">
        <path fill="#FFF" d="M145.25 19h-7.367l-7.318 12h5.497l5.29-8.769L146.644 31h5.848l-7.242-12M59.19 27.086h7.171v-6.172h-7.17v6.172zM57.07 30h11.44c1.796 0 3.25-1.382 3.25-3.087v-5.826c0-1.705-1.454-3.087-3.25-3.087H57.07c-1.794 0-3.25 1.382-3.25 3.087v5.826c0 1.705 1.456 3.087 3.25 3.087zM222.645 27.086h7.17v-6.172h-7.17v6.172zM220.525 30h11.441c1.795 0 3.25-1.382 3.25-3.087v-5.826c0-1.705-1.455-3.087-3.25-3.087h-11.44c-1.795 0-3.25 1.382-3.25 3.087v5.826c0 1.705 1.455 3.087 3.25 3.087zM86.215 23.71h7.773v-2.915h-7.773v2.914zm10.588 2.703c1.6-.004 2.894-1.17 2.894-2.607v-2.719c0-1.705-1.538-3.087-3.435-3.087H80.73v12h5.677v-3.6h4.141l3.81 3.6h6.305l-3.86-3.587zM115.863 18h-5.232v12h13.942v-2.588c0-.124.006-.224.012-.326h-8.722V18M174.002 25.286L166.948 18h-5.486v12h5.37v-7.268L173.829 30h5.573V18h-5.4v7.286M193.742 27.086h7.17v-6.172h-7.17v6.172zM188.372 30h14.69c1.796 0 3.25-1.382 3.25-3.087v-5.826c0-1.705-1.454-3.087-3.25-3.087h-14.69v12z"/>
        <path fill="#12223D" d="M219.108 67.21h13.23V49.79h-13.23v17.42zM235.16 41h-18.825c-4.985 0-9.026 4.208-9.026 9.398v16.203c0 5.19 4.041 9.399 9.026 9.399h18.825c4.985 0 9.026-4.208 9.026-9.399V50.398c0-5.19-4.041-9.398-9.026-9.398zM103.493 67.21h13.23V49.79h-13.23v17.42zM119.546 41H100.72c-4.985 0-9.026 4.208-9.026 9.398v16.203c0 5.19 4.041 9.399 9.026 9.399h18.826c4.984 0 9.025-4.208 9.025-9.399V50.398c0-5.19-4.04-9.398-9.025-9.398zM47.84 76L30.039 41H8.773l4.442 8.735L0 76h13.369L23.92 54.02 34.472 76h13.369M134.816 49.553v21.77c0 2.583 2.013 4.677 4.497 4.677h22.203l3.933-8.21h-18.816V41h-16.068l4.251 8.553M171.693 49.553v21.77c0 2.583 2.013 4.677 4.497 4.677h22.203l3.933-8.21H183.51V41h-16.068l4.25 8.553M260.702 41c-4.82 0-8.728 4.208-8.728 9.398v5.723c0 3.434 2.586 6.219 5.775 6.219h18.478v5.45h-22.185L250.166 76h28.743c4.82 0 8.728-4.208 8.728-9.399v-5.723c0-3.434-2.586-6.218-5.775-6.218h-18.478v-5.451h20.78L288.04 41h-27.338M51.011 49.553V76h12.132V49.53h10.82v9.431h-9.556l3.844 8.15h8.923c4.166 0 7.544-3.581 7.544-8V49c0-4.42-3.378-8.001-7.544-8.001h-30.33l4.167 8.553"/>
        <path fill="#FFFFFE" d="M299.14 79h.757l.103 3h-.636l-.052-2.005-.721 1.64h-.79l-.723-1.64-.052 2.005h-.635l.103-3h.757l.945 2.151.945-2.151zm-5.086.498h-1.03V79h2.697v.498h-1.031V82h-.636v-2.502z"/>
    </g>
</svg>