<svg xmlns="http://www.w3.org/2000/svg" xmlns:xlink="http://www.w3.org/1999/xlink" width="100" height="100" viewBox="0 0 100 100">
    <defs>
        <path id="a" d="M.018.12h112.963V98H.018z"/>
    </defs>
    <g fill="none" fill-rule="evenodd">
        <g transform="translate(-3 1)">
            <mask id="b" fill="#fff">
                <use xlink:href="#a"/>
            </mask>
            <path fill="#111C2C" d="M74.878 87.347h.479l.065 2.22h-.403l-.032-1.484-.456 1.214h-.5l-.457-1.214-.033 1.484h-.402l.065-2.22h.479l.597 1.592.598-1.592zm-3.218.368h-.651v-.368h1.706v.368h-.652v1.852h-.403v-1.852z" mask="url(#b)"/>
            <path fill="#FFFFFE" d="M96.304 36.94c1.375-11.45-.963-21.365-6.699-28.168C84.832 3.112 78.107.12 70.157.12c-9.083 0-18.81 3.857-28.13 11.154-8.363 6.548-15.768 15.515-21.003 25.4C4.266 40.443 0 50.794 0 50.794s1.275 9.04 12.731 14.496c-.419 10.132 2.262 18.855 7.668 24.783C25.128 95.26 31.632 98 39.21 98c10.007 0 21.04-4.825 31.065-13.585 9.391-8.206 17.053-19.106 21.692-30.826l21.014-10.526-16.677-6.123" mask="url(#b)"/>
        </g>
        <path fill="#111C2C" d="M41.744 75.481L46.47 63.28l13.994-4.545c-5.746 8.612-12.913 15.099-18.72 16.746zm21.76-51.506c6.406.062 8.116 7.93 4.791 18.662l-17.333.614a18.279 18.279 0 0 0-.37-3.236c1.852-4.028-.074-6.079-2.087-7.1 5.21-5.509 10.71-8.981 15-8.94zm25.235 16.45C92.294 20.171 83.57 5 66.902 5 50.064 5 30.71 20.482 20.447 41.044 5.587 43.589 1 52.206 1 52.206s2.034 7.742 12.627 11.502C11.883 81.857 20.514 95 36.027 95c18.752 0 40.621-19.2 49.584-43.234L100 44.56l-11.261-4.135z"/>
        <path fill="#DF4F2A" d="M40 85c.291 0 .585-.005.884-.018C54.91 84.373 71.466 69.293 79 51l-6.567 2.447C64.983 69.21 51.882 82.057 40 85M40.623 44.798c1.878-1.32 3.722.337 4.888.365-.62 2.044-3.592-.222-4.888-.365zm6.816-4.713l.028-.037h.003c.716-.871.56-2.13-.356-2.65-7.442-4.23-17.689 2.49-17.689 2.49l3.606.142c-2.149 1.393-4.296 3.023-6.442 4.581C16.721 45.376 11.772 48.558 10 50c2.877-1.491 11.998-4.537 36.625-2.542l.14-2.26 1.127-1.194c.028-.172.057-.343.073-.517.121-1.27-.078-2.427-.526-3.402z"/>
        <path fill="#E77A2B" d="M47.208 36.425c-7.327-4.313-17.416 2.54-17.416 2.54l3.55.145c-2.115 1.42-4.23 3.081-6.342 4.67 3.282-.263 7.118-.244 11.572.22l.315-4.695-2.046-.053s.13-.048.338-.139c5.572-2.295 8.751-1.018 9.892-.33.17.106.335.22.487.344.705-.888.551-2.17-.35-2.702"/>
        <path fill="#DF4F2A" d="M45.793 55.06c-.138 1.469 3.809.895 5.123.665 9.74-2.193 22.466-5.228 29.298-6.918l.9-2.25 3.907-.364-1.138 1.282-.705.75L92 44.903l-7.585-1.758 1.132 1.905-4.038.252c3.302-11.307 2.37-21.528-2.553-27.49-1.408-1.705-3.077-2.974-4.992-3.813.331.366.65.752.954 1.166 4.413 6.027 5.157 16.129 2.106 27.387l-.372-.004a1.66 1.66 0 0 0-.998.332l-3.363 2.49c-.447.33-.966.533-1.5.6l-17.254 1.076-1.95 2.264-1.357 1.542c-.875 1.03-2.164 1.728-3.469 1.876 1.503-4.222-30.305 5.364-38.741 1.072l-.02.002c.915 3.626 6.706 6.37 14.837 6.176 2.213-.053 4.08-.193 6.64-.474-1.572 1.157-3.88 2.286-6.827 2.968-.234 3-.155 5.836.223 8.445 4.423-1.717 10.498-4.835 15.951-10.254l.017-.023a50.101 50.101 0 0 1-15.271 13.67c.72 2.637 1.805 4.954 3.255 6.854A13.63 13.63 0 0 0 29.716 84l16.077-28.94"/>
        <path fill="#E77A2B" d="M46 54.504c-1.11-.748-2.48-.656-3.43.228l-.983 1.669C37.277 63.723 31.197 69.85 24 74.126c.712 2.686 1.788 5.048 3.222 6.985A13.687 13.687 0 0 0 30.085 84L46 54.504M83.05 48.892L92 45.506l-7.695-1.792 1.148 1.943-4.096.256c3.35-11.527 2.405-21.947-2.59-28.026-1.428-1.737-3.122-3.032-5.064-3.887.336.373.66.767.967 1.189 4.477 6.144 5.232 16.443 2.137 27.92l-.377-.003a1.679 1.679 0 0 0-1.013.338l-3.411 2.539c-.454.337-.98.543-1.523.612L52.98 47.69 51 50l33.92-3.18-1.155 1.308-.715.764"/>
    </g>
</svg>
