<svg xmlns="http://www.w3.org/2000/svg" xmlns:xlink="http://www.w3.org/1999/xlink" width="100" height="100" viewBox="0 0 100 100">
    <defs>
        <path id="a" d="M.02.032h99.92v82.615H.02z"/>
    </defs>
    <g fill="none" fill-rule="evenodd">
        <g transform="translate(0 8.667)">
            <mask id="b" fill="#fff">
                <use xlink:href="#a"/>
            </mask>
            <path fill="#C1C2BC" d="M79.413 39.432h.405l.056 1.891h-.341l-.028-1.263-.387 1.033h-.423l-.388-1.033-.027 1.263h-.34l.054-1.89h.406l.507 1.356.506-1.357zm-2.727.314h-.552v-.314h1.446v.314h-.553v1.577h-.34v-1.577z" mask="url(#b)"/>
            <path fill="#C1C2BC" d="M99.722 9.069L77.845 20.714c.619-7.712.093-12.725.093-12.725C67.989 2.9 56.72.032 44.783.032 32.844.032 21.577 2.9 11.628 7.989c0 0-1.979 18.823 6.252 39.681a14.323 14.323 0 0 0-.35 1.888l-.344 3.044-14.249 7.246C1.365 60.645.255 62.33.04 64.245c-.335 2.97 1.527 5.626 4.15 5.92.613.07 1.23 0 1.814-.19a6.237 6.237 0 0 0 2.543 2.386c.642.323 1.33.525 2.039.604a6.556 6.556 0 0 0 3.372-.536l6.372-2.65c.582-.225 3.975-1.728 5.683-6.562 4.651 6.92 10.758 13.608 18.77 19.45 17.84-13.006 26.242-30.205 30.134-44.819l.014-.053C103.968 25.551 99.722 9.07 99.722 9.07" mask="url(#b)"/>
        </g>
        <path fill="#551E2C" d="M27.333 64.744C31.572 71.384 37.228 77.74 44.784 83 59.684 72.629 67.21 57.997 71 45.333L27.333 64.744"/>
        <path fill="#BB2531" d="M74.977 19.273C65.995 14.624 55.804 12 45 12c-10.804 0-20.996 2.624-29.977 7.273 0 0-.683 14.616 5.435 31.107.176-.264.318-.46.398-.56a4.33 4.33 0 0 1 .095-.117c1.618-1.993 3.75-3.118 5.843-3.09 1.789.025 3.347.884 4.272 2.356.87 1.387 1.078 3.17.62 5.031l42.55-22.666c.967-7.235.741-12.061.741-12.061"/>
        <path fill="#551E2C" d="M14.668 73.732l-2.327.937a2.54 2.54 0 0 1-1.228.168c-1.019-.114-1.915-.95-2.364-2.06.213-.007.44-.058.669-.165.57-.264 1.04-.794 1.316-1.41.396.305.944.362 1.513.098.57-.265 1.04-.794 1.316-1.41.396.305.943.362 1.513.098.57-.265 1.04-.794 1.316-1.41.396.304.944.362 1.513.097.16-.074.311-.171.453-.283l.04.01s-.084 3.882-3.73 5.33zM26.774 58.92l.071-.577c1.198-.865 2.126-2.17 2.64-3.422.716-1.743.687-3.438-.078-4.651-.617-.98-1.658-1.55-2.855-1.566-1.507-.02-3.07.834-4.3 2.346a2.496 2.496 0 0 0-.065.079c-.235.3-2.32 3.067-2.886 8.119l-.412 3.677-15.102 7.657c-.927.469-1.627 1.459-1.763 2.666-.204 1.803.925 3.41 2.522 3.588.974.109 1.897-.34 2.515-1.117.039.254.09.506.167.754.832 2.683 3.627 3.917 6.24 2.756l6.429-2.664s4.462-1.543 5.253-8.541l.545-4.46a3.304 3.304 0 0 1 1.808-2.555l58.978-29.346S83.808 37.65 74.347 44.2l2.198-.998c19.716-8.701 20.122-20.536 20.122-20.536L26.774 58.92z"/>
        <path fill="#FFFFFE" d="M27.153 60.987a3.3 3.3 0 0 0-1.804 2.553l-.016.127L71.765 41.41C79.6 37.564 85.999 31.667 86 31.667l-58.847 29.32"/>
        <path fill="#C2C2BD" d="M26.06 51.333c-2.457 0-3.717 3.51-4.195 7.849l-1.063 9.652C20.363 72.814 18.667 74 18.667 74s3.455-.538 4.032-5.78l1.439-11.758c.906-.103 2.025-1.194 2.568-2.537.572-1.419.284-2.58-.646-2.592"/>
        <path fill="#551E2C" d="M42.667 38.667h4.666v-7.334h-4.666zM54.667 38.667h-3.334v-5.692c0-.907.747-1.642 1.667-1.642s1.667.735 1.667 1.642v5.692M35 38.667h3.333v-5.692c0-.907-.746-1.642-1.666-1.642-.92 0-1.667.735-1.667 1.642v5.692"/>
        <path fill="#551E2C" d="M69.334 33h-1.787c-6.402 0-10.118-2.656-11.143-6.258h-4.019a7.759 7.759 0 0 0-7.552-5.937 7.758 7.758 0 0 0-7.552 5.937h-4.019C32.238 30.344 28.522 33 22.12 33h-1.786a98.584 98.584 0 0 1-1-10.749c8.006-3.706 16.576-5.584 25.5-5.584 8.925 0 17.494 1.878 25.5 5.584a98.591 98.591 0 0 1-1 10.749"/>
        <path fill="#FFFFFE" d="M45 61.333l1.731 5.475h5.602l-4.532 3.384 1.731 5.475L45 72.283l-4.532 3.384 1.731-5.475-4.532-3.384h5.602l1.73-5.475"/>
    </g>
</svg>
