<svg xmlns="http://www.w3.org/2000/svg" width="300" height="100" viewBox="0 0 300 100">
    <g fill="none" fill-rule="evenodd">
        <path fill="#BB2531" d="M182.345 31.766h5.31l1.425-1.272v-2.988l-1.425-1.272h-5.31l-1.424 1.272v2.988l1.424 1.272zM189.517 35h-9.034L177 31.89v-5.78l3.483-3.11h9.034L193 26.11v5.78L189.517 35zM235.345 31.766h5.31l1.424-1.272v-2.988l-1.424-1.272h-5.31l-1.425 1.272v2.988l1.425 1.272zM242.517 35h-9.034L230 31.89v-5.78l3.483-3.11h9.034L246 26.11v5.78L242.517 35zM125.496 30.027l2.004-3.163 2.004 3.163h-4.008zm7.16 4.973H137l-7.521-12h-3.958L118 35h4.344l1.43-2.256h7.452l1.43 2.256zM79.496 30.027l2.004-3.163 2.004 3.163h-4.008zM86.656 35H91l-7.521-12H79.52L72 35h4.344l1.43-2.256h7.452L86.656 35zM108 35h-4.548l-6.427-7.421v7.42H93V23h4.547l6.428 7.422v-7.421H108V35M156 35h-4.526l-7.458-7.49v7.489H140V23h4.525l7.459 7.492V23H156V35M214 35h-4.526l-7.458-7.49v7.489H198V23h4.526l7.459 7.492V23H214V35M174 23h-14v2.959h5.08V35h3.839v-9.041H174V23M220 35h4V23h-4zM66.137 27.521h-8.108l-.795-.712 1.216-1.09h9.508V23h-11.94L53 25.703v2.212l2.863 2.565h8.109l.795.711-1.217 1.09H53.484V35h12.499L69 32.297v-2.211l-2.863-2.565"/>
        <path fill="#FFFFFE" d="M17.104 42H3.896c-.35 2.013-1.912 3.598-3.896 3.953v27.094c1.984.355 3.546 1.94 3.896 3.953h13.208c.35-2.013 1.912-3.598 3.896-3.953v-9.108h-6.415c-1.178 0-2.133.97-2.133 2.164v4.353H8.548v-21.66h3.904v4.05c0 1.195.955 2.164 2.133 2.164H21v-9.057c-1.984-.355-3.545-1.94-3.896-3.953M35.548 70.456h3.904v-21.66h-3.904v21.66zM44.104 42H30.896c-.35 2.013-1.912 3.598-3.896 3.953v27.094c1.984.355 3.546 1.94 3.896 3.953h13.208c.35-2.013 1.912-3.598 3.896-3.953V45.953c-1.984-.355-3.545-1.94-3.896-3.953zM172.868 48.087h1.153c.764 0 1.383.632 1.383 1.41v11.498L167.894 42H158v6.087h.613c.98 0 1.774.81 1.774 1.81v19.156c0 1-.794 1.81-1.774 1.81H158V77h12.33v-6.138h-.936c-.856 0-1.55-.708-1.55-1.581V57.649L175.305 77H185v-6.087h-.755c-.764 0-1.383-.632-1.383-1.41V49.497c0-.78.619-1.411 1.383-1.411H185V42h-12.132v6.087M232.86 68.552v1.02c0 .768-.617 1.391-1.38 1.391h-2.469v-8.268h4.52a1.93 1.93 0 0 0 1.922-1.938v-5.213h-6.442v-7.508h2.369c.762 0 1.38.624 1.38 1.393v.715c0 1.077.866 1.95 1.933 1.95h5.207V42H218v6.036h1.033c.763 0 1.38.624 1.38 1.393V69.57c0 .77-.617 1.392-1.38 1.392H218V77h22V66.601h-5.206a1.942 1.942 0 0 0-1.933 1.95M261.38 56.107c0 .794-.667 1.44-1.49 1.44h-3.376v-9.46h3.375c.824 0 1.492.644 1.492 1.439v6.58zm8.939 13.234v-7.025a5.05 5.05 0 0 1-3.336-2.132 5.049 5.049 0 0 1 3.336-2.133V45.953c-2.088-.355-3.73-1.94-4.098-3.953H245v6.036h.98c.852 0 1.544.668 1.544 1.49v19.947c0 .823-.692 1.49-1.545 1.49H245V77h13.827v-6.037h-.871c-.797 0-1.442-.622-1.442-1.39v-5.94h3.375c.824 0 1.492.644 1.492 1.44v7.793c0 2.283 1.918 4.134 4.285 4.134H272v-6.037c-.929 0-1.681-.726-1.681-1.622zM138.156 61.174l1.93-13.442h.828l1.93 13.442h-4.688zm13.578 8.642l-3.594-20.044c-.185-.895.49-1.736 1.395-1.736h1.106V42h-20.757v6.036h1.055c.905 0 1.58.84 1.396 1.736l-3.07 20.044a1.428 1.428 0 0 1-1.393 1.147H127V77h11.707v-5.986h-.319c-.882 0-1.551-.803-1.402-1.683l.311-2.171h6.406l.312 2.17c.149.88-.521 1.684-1.403 1.684h-.319V77H154v-6.037h-.872a1.428 1.428 0 0 1-1.394-1.147zM200.448 70.456h4.624v-21.66h-4.624v21.66zM209.931 42H189v6.036h1.073c.791 0 1.433.624 1.433 1.392v20.143c0 .77-.642 1.392-1.433 1.392H189V77h20.931c.366-2.013 1.997-3.598 4.069-3.953V45.953c-2.072-.355-3.703-1.94-4.069-3.953zM290.442 53.415H297v-7.462A4.9 4.9 0 0 1 293.018 42h-14.036A4.901 4.901 0 0 1 275 45.953v11.962c0 2.32 1.896 4.203 4.234 4.203h9.029v8.085h-4.525v-2.986a2.172 2.172 0 0 0-2.18-2.164H275v7.994A4.902 4.902 0 0 1 278.982 77h14.036A4.901 4.901 0 0 1 297 73.047V60.234c0-2.321-1.896-4.203-4.233-4.203h-9.03v-7.234h4.526v2.454c0 1.195.975 2.164 2.18 2.164M106.5 60.171L100.632 42H90v6.087h.626c1 0 1.81.81 1.81 1.81v19.156c0 1-.81 1.81-1.81 1.81H90V77h12.587v-6.138h-.956a1.581 1.581 0 0 1-1.582-1.581V57.649l3.231 12.233h6.44l3.23-12.233v11.632c0 .873-.707 1.581-1.58 1.581h-.956V77H123v-6.138h-.625c-1 0-1.811-.81-1.811-1.81V49.897c0-1 .81-1.81 1.81-1.81H123V42h-10.631L106.5 60.171M68.5 60.171L62.632 42H52v6.087h.626c1 0 1.81.81 1.81 1.81v19.156c0 1-.81 1.81-1.81 1.81H52V77h12.587v-6.138h-.956a1.581 1.581 0 0 1-1.582-1.581V57.649l3.231 12.233h6.44l3.231-12.233v11.632c0 .873-.708 1.581-1.582 1.581h-.955V77H85v-6.138h-.626c-1 0-1.81-.81-1.81-1.81V49.897c0-1 .81-1.81 1.81-1.81H85V42H74.369L68.5 60.171"/>
        <path fill="#BB2531" d="M303.26 79h.651l.089 4h-.547l-.045-2.673-.62 2.185h-.68l-.621-2.185-.044 2.673h-.547l.09-4h.65l.812 2.868.812-2.868zm-4.373.664H298V79h2.32v.664h-.887V83h-.546v-3.336z"/>
    </g>
</svg>