<svg xmlns="http://www.w3.org/2000/svg" width="300" height="100" viewBox="0 0 300 100">
    <g fill="none" fill-rule="evenodd">
        <path fill="#111D2C" d="M0 79l286.895 11L290 79H0M60.803 16.308h-.299L57.904 26H52l4.315-16h7.393c1.223 0 1.505.275 1.618 1.235l.856 6.924h.267l4.555-7.222c.468-.708.843-.937 1.768-.937H81l-4.315 16h-6.022l2.602-9.692h-.298l-6.05 8.777c-.47.686-.845.915-1.62.915h-1.7c-1.133 0-1.386-.276-1.525-1.19l-1.27-8.502M105.723 26H89l4.275-16H110l-.983 3.68H98.646l-.664 2.492h7.505l-.938 3.404h-7.475l-.74 2.744h10.372l-.983 3.68M128.802 16.308h-.297L125.903 26H120l4.315-16h7.393c1.222 0 1.506.275 1.618 1.235l.854 6.924h.27l4.554-7.222c.468-.708.843-.937 1.767-.937H149l-4.315 16h-6.022l2.602-9.692h-.299l-6.05 8.777c-.47.686-.844.915-1.62.915h-1.699c-1.133 0-1.386-.276-1.526-1.19l-1.269-8.502M164.672 13.611l-1.01 3.795h2.964c1.156 0 1.569-.046 1.852-.274.284-.23.506-.527.8-1.669.294-1.12.127-1.463-.12-1.647-.215-.159-.514-.205-1.877-.205h-2.61zm8.697 6.263c-1.221.983-2.871 1.143-4.74 1.143h-5.927L161.372 26H155l4.29-16h10.58c2.668 0 4.048.32 4.975 1.006 1.236.937 1.376 2.422.908 4.73-.466 2.333-1.56 3.475-2.384 4.138zM205.672 26h-6.427l1.665-6.195h-6.818L192.428 26H186l4.327-16h6.428l-1.644 6.035h6.818L203.571 10H210l-4.328 16M219 26l4.023-16H229l-4.024 16H219M244.31 20.605c-.383 1.143-.367 1.463-.15 1.623.218.16.548.206 1.561.206h2.888c.685 0 1.014 0 1.213-.16.143-.115.34-.32.487-.892.15-.525.133-.846-.053-.982-.093-.07-.274-.115-.635-.184l-6.22-1.005c-1.353-.23-1.992-.456-2.58-.868-.992-.71-1.264-1.874-.714-3.818.493-1.874 1.39-2.902 2.132-3.52.885-.708 2.118-1.005 3.698-1.005h7.624c1.817 0 2.934.275 3.586.755.992.73 1.059 1.942.51 4.434h-5.868c.186-.938.2-1.258-.018-1.418-.217-.16-.547-.205-1.56-.205h-2.413c-.684 0-1.042 0-1.213.137-.143.113-.28.342-.43.868-.121.48-.138.732.048.868.124.093.277.161.637.207l6.128.96c1.383.228 2.02.434 2.609.868.993.731 1.296 1.92.749 3.908-.522 1.92-1.416 2.972-2.187 3.59-.914.73-2.148 1.028-3.756 1.028h-8.101c-1.728 0-2.844-.252-3.466-.733-.961-.708-1.132-2.216-.194-4.662h5.689"/>
        <path fill="#FFFFFE" d="M3 71h43.623L49 63.146H29.986L31.552 58H18.726C14.17 70.538 3 71 3 71M121.146 56.282L121.04 56H99.412L95 72h13.093l2.462-9.58h13.534c4.38 0 8.266-2.575 9.911-6.42h-12.776l-.078.282M48.514 47.62H33.297l1.272-4.989h19.035l1.926-6.985c2.892 1.465 6.557 4.085 8.705 8.53l4.1 8.482h14.453l17.572-17.416c2.224 1.774 5.322 5.595 3.452 12.379l-1.39 5.037h12.612l2.945-10.187h8.56l-2.81 10.187h12.612l2.335-8.076C140.213 39.267 136.089 34 130.394 34H87.456l-9.638 9.919h-.476L72.702 34H15s8.178 3.55 5.402 13.62L18.642 54h23.87l6.002-6.38M48 72h13.962l9.872-10.758h.467l1.242 2.858c2.45 6.096-2.693 7.9-2.693 7.9H90l-7.41-16H63.554L48 72M157.766 41.626h8.647L163.575 52h12.74l2.358-8.224C180.225 38.364 176.06 33 170.307 33H138s8.26 3.616 5.456 13.868L142.007 52h12.785l2.974-10.374M172.514 70.136l-5.18-8.284A10.361 10.361 0 0 0 173.5 56h-12.276l-.04.154h-.08L161.05 56h-20.837l-.688 2.515C136.17 70.393 128 72 128 72h20.618l2.364-9.58h4.69l3.647 5.834a7.941 7.941 0 0 0 6.73 3.746h43.612L212 63.163h-18.708l1.542-5.79h-12.623c-2.305 7.256-6.329 10.921-9.697 12.763M213.344 47.62H197.75l1.303-4.989h19.508L221 34h-42s8.38 3.55 5.535 13.62L182.732 54h24.464l6.148-6.38M238.577 61.706c-.36 1.001-1.44 1.684-2.663 1.684h-19.578L214 71h26.542c3.242 0 5.812-.635 7.708-2.146 1.59-1.318 3.547-3.513 4.77-7.514L254 58h-14.086l-1.337 3.706M255.78 53.03c.902-3.333-1.195-6.035-4.682-6.035h-15.193l.786-2.706c.331-1.138 1.415-1.924 2.65-1.924h19.356L261 34h-26.172c-3.197 0-5.73.696-7.6 2.359-1.567 1.448-3.497 3.86-4.703 8.257L220 54h35.525l.255-.97M279.577 61.706c-.361 1.001-1.44 1.684-2.663 1.684h-19.579L255 71h26.542c3.242 0 5.812-.635 7.708-2.146 1.59-1.318 3.547-3.513 4.771-7.514L295 58h-14.085l-1.338 3.706M294.78 53.03c.9-3.333-1.196-6.035-4.683-6.035h-15.192l.787-2.706c.33-1.138 1.414-1.924 2.649-1.924h19.356L300 34h-26.171c-3.197 0-5.73.696-7.6 2.359-1.567 1.448-3.498 3.86-4.704 8.257L259 54h35.524l.256-.97"/>
        <path fill="#111D2C" d="M297.156 97l-.157-2.353c-.015-.308-.015-.691-.03-1.117h-.048c-.109.352-.234.823-.358 1.19l-.767 2.222h-.874l-.766-2.28c-.078-.309-.203-.78-.296-1.132h-.048c0 .367-.015.75-.03 1.117L293.625 97h-.813l.313-4h1.266l.733 1.956c.094.309.172.603.282 1.015h.016c.108-.368.203-.706.296-1l.734-1.971h1.22l.328 4h-.844zm-4.594-4v.662h-1.36V97h-.843v-3.338H289V93h3.562z"/>
    </g>
</svg>