<svg xmlns="http://www.w3.org/2000/svg" width="100" height="100" viewBox="0 0 100 100">
    <g fill="none" fill-rule="evenodd">
        <path fill="#FFFFFE" d="M88.358 35.835l-7.604-.642L89.33 16 26.862 47.873c5.203-.438 13.735-.295 10.971 5.861l-1.072 2.503L6.723 70.249C2.517 72.211.092 74.05 0 74.128L76.555 47.37l-2.483 5.542-25.988 7.97-2.198 4.902 20.426-5.807-4.498 10.118-37.154 8.202s6.42-2.476 10.727-12.095l.753-1.658-3.381 1.037-.511 1.193c-4.489 10.238-23.664 17.56-23.664 17.56l55.441-11.452 7.17-15.83 5.186-1.452 2.719-5.888 1.169 2.89 7.007-1.857 4.387-8.507 15.004-5.286s-6.368-4.468-18.309-1.117"/>
        <path fill="#BB2531" d="M13.477 71.594l22.716-6.898-.754 1.644c-4.314 9.538-10.743 11.993-10.743 11.993L61.904 70.2l4.504-10.032-20.455 5.758 2.201-4.862 26.026-7.903 2.487-5.494L0 74.2s5.094-.025 13.477-2.606"/>
        <path fill="#111C2C" d="M77.727 33.843l4.94-11.176L36 46.07s8.489.114 4.095 9.695L38.653 59l26.6-9.838 2.472-6.109-14.329 5.988 2.417-5.42 21.914-9.778"/>
        <path fill="#111C2C" d="M100 36.966s-4.287-1.195-11.715 1.193L76.18 36.944l-4.087 1.644 4.307 3.785.032-.003.013-.002c.06-.007.138-.016 0 0-.005 0-.009 0-.013.002-.012 0-.018.002-.032.003-2.877.877-4.98-.754-4.98-.754l-2.754 7.048L100 36.966M81.958 49.667l3.768-1.116 2.607-5.218-8 2.876 1.625 3.458"/>
        <path fill="#FFFFFE" d="M65.656 78.667l-.064-1.177c-.006-.154-.006-.345-.012-.558h-.02c-.044.176-.095.411-.146.595l-.311 1.11h-.357l-.312-1.14-.121-.565h-.02c0 .183-.005.374-.012.558l-.063 1.177h-.332l.128-2h.515l.3.978c.038.154.07.301.114.507h.006c.045-.184.083-.353.122-.5l.299-.985h.496l.134 2h-.344zm-1.871-2v.33h-.554v1.67h-.344v-1.67h-.554v-.33h1.452z"/>
    </g>
</svg>
