<svg xmlns="http://www.w3.org/2000/svg" xmlns:xlink="http://www.w3.org/1999/xlink" width="100" height="100" viewBox="0 0 100 100">
    <defs>
        <path id="a" d="M.022.052h86.103v99.926H.022z"/>
    </defs>
    <g fill="none" fill-rule="evenodd">
        <g transform="translate(7)">
            <mask id="b" fill="#fff">
                <use xlink:href="#a"/>
            </mask>
            <path fill="#F6C03C" d="M53.65 8.288a9.093 9.093 0 0 0 1.219-4.16h-7.132L47.562.052h-9.395l-.174 4.076H31.31a9.092 9.092 0 0 0 1.214 4.154C13.59 10.827 0 19.265 0 19.265V74.24L43.062 100l43.063-25.76V19.264S72.558 10.841 53.65 8.288" mask="url(#b)"/>
        </g>
        <path fill="#2E383D" d="M90.333 21.119s-10.692-6.52-26.301-9.308a7.919 7.919 0 0 1-3.31 4.392c8.224 1.215 16.388 3.84 24.353 7.889v26.79h-7.25l2.022-6.278s-1.619-1.209-4.34-2.91l5.147-3.14v-3.33l-9.249 4.046c-.58-.323-1.178-.65-1.802-.98l11.05-6.743v-3.33l-10.448 4.57V24.54H63.13v-3.46s-6.19-1.714-10.426-1.714l-.175-4.233h3.539c1.726 0 3.302-1.246 4.063-3.213h-7.74l-.09-2.107h1.205c1.727 0 3.302-1.22 4.063-3.147h-5.402L52.009 3h-3.761v.337l-.143 3.33h-5.383c.761 1.927 2.337 3.147 4.063 3.147h1.186l-.09 2.107h-7.72c.76 1.967 2.336 3.213 4.062 3.213h3.52l-.18 4.232c-4.238 0-10.435 1.715-10.435 1.715v3.46h-7.076v8.246l-10.448-4.57v3.33l11.152 6.69c-.66.347-1.293.692-1.904 1.033l-9.248-4.046v3.33l5.188 3.112c-2.746 1.717-4.382 2.938-4.382 2.938l2.023 6.279h-6.841V23.889c7.959-3.993 16.113-6.57 24.324-7.739a7.918 7.918 0 0 1-3.23-4.347c-15.637 2.782-26.353 9.316-26.353 9.316v51.236l40 23.645 40-23.645V21.12"/>
        <path fill="#9AA2A2" d="M88.466 84.667h.47L89 87h-.395l-.032-1.56-.448 1.275h-.491l-.449-1.275-.032 1.56h-.395l.065-2.333h.47l.586 1.673.587-1.673zm-3.16.387h-.64v-.387h1.676v.387h-.64V87h-.396v-1.946zM49.553 21.333c-3.463 0-6.895.433-10.22 1.286v1.714h8.947l6.387-2.682a41.32 41.32 0 0 0-5.114-.318M33 28.333v1.334h16.52L53 28.333H33M55.92 41.667c-.224 0-.437.092-.635.247.593.489 1.01 1.655 1.01 3.02 0 1.574-.555 2.886-1.295 3.196.268.335.581.537.92.537.965 0 1.747-1.567 1.747-3.5s-.782-3.5-1.746-3.5M44.378 41.992c-.917 0-1.661 1.563-1.661 3.49 0 1.927.744 3.49 1.661 3.49.919 0 1.663-1.563 1.663-3.49 0-1.927-.744-3.49-1.663-3.49zm5.289 31.341L28.924 61.4l-4.59-15.043c11.752-8.045 25.333-11.69 25.333-11.69v38.666z"/>
        <path fill="#9AA2A2" d="M50.209 80.748l-34.876-20.26v7.308l34.858 20.87L85 67.617v-7.283L50.209 80.748"/>
    </g>
</svg>
