<svg xmlns="http://www.w3.org/2000/svg" width="300" height="100" viewBox="0 0 300 100">
    <g fill="none" fill-rule="evenodd">
        <path fill="#9AA2A2" d="M298.994 90h.886l.12 4h-.744l-.06-2.673-.845 2.185h-.925l-.845-2.185-.06 2.673h-.744l.121-4h.885l1.106 2.868L298.994 90zm-5.951.664h-1.206V90h3.156v.664h-1.206V94h-.744v-3.336z"/>
        <path fill="#F6C03C" d="M42.857 16.796v-1.602h5.35v.584l.386.358h9.018l.304-.282v-1.677l-.202-.189H45.208l-2.27-2.11V8.393L45.512 6h15.302l2.37 2.204v1.602h-5.35v-.622l-.385-.358h-8.856l-.305.282v1.62l.203.19h12.505l2.27 2.11v3.58L60.691 19H45.228l-2.37-2.204M74.738 12.656v-2.417l1.196-1.11h7.316l1.196 1.11v2.417h-9.708zM86.817 6h-14.45l-2.98 2.77V19h5.35v-3.536h9.709V19h5.35V8.77L86.817 6zM98.98 6h8.492l7.012 9.722V6h4.904v13h-8.514l-6.99-9.76V19H98.98V6M153.755 15.985l1.178-1.111v-4.748l-1.178-1.111h-8.687v6.97h8.687zM139.795 6h17.474l2.935 2.77v7.46L157.27 19h-17.473V6zM166.327 19h6.122V6h-6.122zM179.592 6h16.288v2.826h-11.223v2.204h10.148v2.807h-10.148v2.337h11.261V19h-16.326V6M206.122 16.23V8.77L208.977 6h15.088l2.466 2.393v1.601h-5.127v-.621l-.369-.358h-8.641l-1.145 1.111v4.936l1.145 1.112h8.641l.369-.358v-1.658h-6.816v-2.732h11.943v5.181L224.065 19h-15.088l-2.855-2.77M246.736 15.985l1.154-1.111v-4.748l-1.154-1.111h-7.757l-1.155 1.111v4.748l1.155 1.11h7.757zm-14.083.246V8.769L235.533 6h14.65l2.878 2.77v7.46L250.182 19h-14.65l-2.879-2.77z"/>
        <path fill="#9AA2A2" d="M49.785 47.638h-9.99L43.073 51h9.99V34.362L49.784 31v16.638M19.388 42v13h3.496v-9.59h16.912V42H19.388M0 41l4.064 4h3.079v-4H0M19.388 64.156V75h3.527v-7.392h19.942V56.452L39.331 53v11.156H19.388M0 84.678L3.34 88h26.252V77.323L26.252 74v10.678H0M59.184 41l4.064 4h3.079v-4h-7.143M77.551 40.033V75h3.071V43.465h7.133V32.434L84.684 29v11.033H77.55M105.732 84.872H59.184L62.635 88h46.549V67.479L105.732 65v19.872M134.694 42v12h3.472v-8.528h18.977V42h-22.45M135.714 62.019V74h3.493v-8.711h20.997v-10.02L156.711 52v10.019h-20.997M167.149 47.59h-10.006l3.26 3.41h10.005V34.41l-3.26-3.41v16.59M116.327 86.397L119.709 90h50.7V73.604L167.025 70v16.397h-50.7M116.327 41l4.064 4h3.078v-4h-7.142M179.592 41l4.064 4h3.079v-4h-7.143M181.633 86.397L185.015 90h50.7V73.604L232.331 70v16.397h-50.7M198.98 62.019V74h3.493v-8.711h20.996v-10.02L219.976 52v10.019H198.98M232.455 47.59H222.45l3.26 3.41h10.005V34.41L232.455 31v16.59M198.98 42v12h3.472v-8.528h18.977V42h-22.45M254.082 84.678L257.488 88h30.267V77.323L284.35 74v10.678h-30.267M295.568 30v18.727h-8.833L290.147 52h8.833V33.273L295.568 30M276.53 41v34h3.045V44.359h7.16V41H276.53M251.71 42v8.517h-8.853L246.305 54h8.853v-8.518h8.107V42H251.71"/>
        <path fill="#FFFFFE" d="M6.002 76.168H0V87h26.845V76.168h-8.217V65.576h19.314V54.68H18.628V41.833h19.939v5.855H48.98V31H0v10.833h6.002v34.335M78.169 41.833h8.083V31H59.184v10.833H65.3v34.335h-6.116V87h46.938V64.889H95.583v11.279H78.17V41.833M123.448 76.168h-6.101V87h52.04V71.66h-10.584v4.508h-22.52V63.813h20.87V53.48h-20.87V41.833h22.447v5.573h10.658V31h-52.041v10.833h6.1v34.335M186.714 76.168h-6.102V87h52.041V71.66h-10.585v4.508H199.55V63.813h20.868V53.48h-20.868V41.833h22.446v5.573h10.658V31h-52.04v10.833h6.1v34.335M250.763 42.044h11.65v34.124h-9.017V87h30.89V76.168h-9.019V42.044h11.652v8.245h9V31h-54.082v19.29h8.926v-8.246"/>
        <path fill="#F6C03C" d="M42.857 16.796v-1.602h5.35v.584l.386.358h9.018l.304-.282v-1.677l-.202-.189H45.208l-2.27-2.11V8.393L45.512 6h15.302l2.37 2.204v1.602h-5.35v-.622l-.385-.358h-8.856l-.305.282v1.62l.203.19h12.505l2.27 2.11v3.58L60.691 19H45.228l-2.37-2.204M74.738 12.656v-2.417l1.196-1.11h7.316l1.196 1.11v2.417h-9.708zM86.817 6h-14.45l-2.98 2.77V19h5.35v-3.536h9.709V19h5.35V8.77L86.817 6zM98.98 6h8.492l7.012 9.722V6h4.904v13h-8.514l-6.99-9.76V19H98.98V6M153.755 15.985l1.178-1.111v-4.748l-1.178-1.111h-8.687v6.97h8.687zM139.795 6h17.474l2.935 2.77v7.46L157.27 19h-17.473V6zM166.327 19h6.122V6h-6.122zM179.592 6h16.288v2.826h-11.223v2.204h10.148v2.807h-10.148v2.337h11.261V19h-16.326V6M206.122 16.23V8.77L208.977 6h15.088l2.466 2.393v1.601h-5.127v-.621l-.369-.358h-8.641l-1.145 1.111v4.936l1.145 1.112h8.641l.369-.358v-1.658h-6.816v-2.732h11.943v5.181L224.065 19h-15.088l-2.855-2.77M246.736 15.985l1.154-1.111v-4.748l-1.154-1.111h-7.757l-1.155 1.111v4.748l1.155 1.11h7.757zm-14.083.246V8.769L235.533 6h14.65l2.878 2.77v7.46L250.182 19h-14.65l-2.879-2.77z"/>
    </g>
</svg>