<svg xmlns="http://www.w3.org/2000/svg" xmlns:xlink="http://www.w3.org/1999/xlink" width="100" height="100" viewBox="0 0 100 100">
    <defs>
        <path id="a" d="M0 .028h99.875v82.953H0z"/>
    </defs>
    <g fill="none" fill-rule="evenodd">
        <g transform="translate(0 9)">
            <mask id="b" fill="#fff">
                <use xlink:href="#a"/>
            </mask>
            <path fill="#F2AF36" d="M25.458 83c-5.097-1.606-8.412-3.964-10.536-6.13a4.457 4.457 0 0 1 .464-6.663 414.94 414.94 0 0 0 3.943-3.06v-5.482c0-7.607-1.698-11.7-3.063-14.988-.947-2.283-1.842-4.44-1.842-7.023 0-1.952.512-3.662 1.17-5.366C11.57 33.818 2.48 31.29 0 18.158c0 0 5.392-.886 12.2-8.413C18.324 2.97 26.788-1.388 34.651.45c-1.52 1.836-4.087 5.216-5.596 8.748 6.85-.175 10.693-1.749 13.815-3.029 2.298-.942 4.468-1.831 7.067-1.831 2.598 0 4.769.89 7.067 1.831 3.121 1.28 6.964 2.854 13.814 3.03-1.509-3.533-4.075-6.913-5.596-8.75 7.864-1.838 16.327 2.52 22.453 9.295 6.808 7.527 12.2 8.413 12.2 8.413-2.48 13.133-11.57 15.66-15.595 16.13.659 1.704 1.17 3.414 1.17 5.366 0 2.583-.894 4.74-1.842 7.023-1.364 3.289-3.062 7.381-3.062 14.988v5.482c.6.48 2.121 1.657 3.943 3.06a4.458 4.458 0 0 1 .463 6.662C82.83 79.036 79.515 81.394 74.418 83c-2.322-4.21-5.278-8.522-8.76-12.441-3.812.596-6.418 1.663-8.653 2.579-2.298.942-4.469 1.832-7.067 1.832-2.599 0-4.77-.89-7.067-1.832-2.235-.916-4.841-1.983-8.654-2.58 0 0-4.667 5.075-8.759 12.442" mask="url(#b)"/>
        </g>
        <path fill="#193E30" d="M84.036 40.36C95.826 39.15 98 28.38 98 28.38s-4.39-1.442-9.756-6.941C83.594 16.672 76.72 11.114 70.561 11c4.415 4.957 6.596 9.1 6.596 9.1l-3.081 2.977a51.44 51.44 0 0 1 2.267 2.626l-5.533 5.341a26.301 26.301 0 0 0-2.923-2.835c3.251-4.314 5.259-7.443 5.259-7.443-13.393 0-16.926-4.83-22.146-4.83-5.22 0-8.753 4.83-22.145 4.83 0 0 2.007 3.13 5.258 7.443a26.33 26.33 0 0 0-2.923 2.835l-5.533-5.34a51.44 51.44 0 0 1 2.268-2.627L24.843 20.1s2.181-4.143 6.597-9.1c-6.159.114-13.033 5.672-17.684 10.439C8.39 26.938 4 28.379 4 28.379s2.175 10.77 13.964 11.982c0 0 .6-3.272 3.208-8.01l1.561 1.461c-1.333 7.214-4.252 10.195-4.252 14.161 0 5.14 4.903 8.617 4.903 21.802 0 0 3.174-1.974 7.549-5.173a26.24 26.24 0 0 0 2.458 2.515c-7.645 7.12-13.764 11.693-15.598 13.023-.442.321-.726.813-.78 1.35a1.899 1.899 0 0 0 .501 1.48c.752.809 1.588 1.566 2.507 2.221C22.418 86.9 25.502 88 25.502 88c1.64-2.776 4.855-7.563 9.396-12.444C43.496 76.69 46.67 80.011 51 80.011s7.505-3.321 16.102-4.455c4.541 4.88 7.757 9.668 9.396 12.444 0 0 3.084-1.101 5.48-2.809a16.491 16.491 0 0 0 2.508-2.221 1.9 1.9 0 0 0 .5-1.48 1.905 1.905 0 0 0-.779-1.35c-1.834-1.33-7.953-5.904-15.597-13.023a26.273 26.273 0 0 0 2.458-2.514c4.375 3.198 7.548 5.172 7.548 5.172 0-13.185 4.903-16.663 4.903-21.802 0-3.966-2.919-6.947-4.252-14.16l1.56-1.462c2.61 4.738 3.21 8.01 3.21 8.01"/>
        <path fill="#F2AF36" d="M63.259 66.202L53.743 57 53 58.97 75.365 79.5c2.35 2.156 1.773 4.374 1.738 4.5 1.845-.62 3.16-1.747 3.897-2.525-3.126-2.348-9.868-7.65-17.741-15.273M77.118 29L50.692 54.16 24.266 29l-.882 2.998 12.317 11.368 13.507 12.206-11.765 11.201C29.702 74.151 23.073 79.283 20 81.556c.725.753 2.018 1.843 3.831 2.444-.035-.122-.602-2.269 1.709-4.357l40.144-36.277L78 31.998 77.118 29"/>
        <path fill="#DD462C" d="M15.455 34.685s2.704-5.477 8.755-11.271l-2.332-2.323C22.971 18.855 24.45 16.797 26 15c-3.676 1.717-7.47 5.288-10.975 8.853-3.297 3.354-6.073 5.343-8.025 6.273a12.453 12.453 0 0 0 3.007 4.856A11.563 11.563 0 0 0 15.223 38c.175-.566.41-1.212.724-1.935l-.492-1.38M84.975 23.853C81.47 20.288 77.675 16.717 74 15c1.55 1.797 3.029 3.855 4.122 6.091l-2.332 2.323c6.051 5.794 8.755 11.271 8.755 11.271l-.492 1.38c.314.723.55 1.37.724 1.935 1.89-.5 3.694-1.501 5.216-3.018A12.446 12.446 0 0 0 93 30.126c-1.952-.93-4.728-2.92-8.025-6.273M44 57.482c-1.105-1.905-2.474-3.139-3.569-3.888 1.234 3.342.127 7.94-3.1 5.158-3.91-3.37-3.358-9.875-3.358-9.875s-3.858 5.812-1.241 12.576c-2.184-3.214-3.458-7.051-3.458-11.176 0-2.577.5-5.04 1.405-7.312L28.525 41A21.838 21.838 0 0 0 27 49.021c0 6.745 3.075 12.81 7.946 16.979.17-.158.338-.315.508-.476L44 57.482M48.775 29.592L37.77 39.554l2.326 2.212L50 32.78l3.81 3.457h-5.568l-3.237 2.936h5.55l-6.756 6.115L46.652 48h6.696l3.043-2.893h-7.6l7.404-6.707 3.71 3.366 2.326-2.212-10.99-9.948c5.7.34 10.79 2.856 14.41 6.697L68 34.07C63.653 29.136 57.199 26 50 26c-7.198 0-13.652 3.136-18 8.07l2.255 2.144c3.655-3.837 8.786-6.33 14.52-6.622M41 70.012A23.617 23.617 0 0 0 50.5 72c3.377 0 6.589-.713 9.5-1.988L50.5 61 41 70.012M71.55 50.278c0 3.876-1.122 7.5-3.07 10.591 2.185-6.511-1.453-11.992-1.453-11.992s.551 6.506-3.357 9.875c-3.227 2.782-4.334-1.816-3.1-5.158-1.095.75-2.465 1.983-3.57 3.887l8.546 8.043.509.476C70.925 61.831 74 55.766 74 49.021A21.84 21.84 0 0 0 72.475 41l-2.284 2.084a19.702 19.702 0 0 1 1.359 7.194"/>
        <path fill="#FFFFFE" d="M7.782 29c-.65.422-1.248.76-1.782 1.017a12.642 12.642 0 0 0 3.024 4.924c1.532 1.537 3.346 2.553 5.248 3.059.176-.574.413-1.228.728-1.962a11.67 11.67 0 0 1-4.45-2.812A12.583 12.583 0 0 1 7.782 29M91.218 29c.65.422 1.248.76 1.782 1.017a12.634 12.634 0 0 1-3.024 4.924c-1.531 1.537-3.346 2.553-5.248 3.059A19.24 19.24 0 0 0 84 36.038a11.67 11.67 0 0 0 4.45-2.812A12.588 12.588 0 0 0 91.218 29"/>
        <path fill="#F2AF36" d="M87.507 73h.434L88 75h-.365l-.03-1.337-.413 1.093h-.453l-.414-1.093-.03 1.337h-.364l.06-2h.433l.541 1.434.542-1.434zm-2.916.332H84V73h1.547v.332h-.591V75h-.365v-1.668z"/>
    </g>
</svg>
