<svg xmlns="http://www.w3.org/2000/svg" width="300" height="100" viewBox="0 0 300 100">
    <g fill="none" fill-rule="evenodd">
        <path fill="#F2AF36" d="M299.135 81.214h.76l.105 3.01h-.64l-.052-2.012-.727 1.645h-.795l-.727-1.645-.052 2.012h-.64l.104-3.01h.761l.952 2.159.951-2.159zm-5.12.5h-1.038v-.5h2.716v.5h-1.039v2.51h-.64v-2.51z"/>
        <path fill="#DD462C" d="M75.382 25.548l-1.565-3.844-2.867 3.844h4.432zm7.896 5.492l-5.655.007-.907-2.226h-8.207l-1.65 2.211-5.655.008 7.948-10.475L67.65 17h9.634l5.993 14.04zM104.873 20.566h-7.049l-.54 3.345h7.048l.54-3.345zm4.26 10.48h-5.937l-2.917-4.115h-3.484l-.666 4.116h-5.33l1.694-10.48L90.301 17h17.438l2.629 2.55-.781 4.831-3.4 2.51 2.946 4.156zM118.395 31.047L120.746 17h5.675l-2.351 14.047h-5.675M150.895 20.693l-10.634 6.788h9.513l-.59 3.566h-16.743l.607-3.691 10.638-6.79h-9.515l.588-3.566h16.746l-.61 3.693M170.625 20.562l-6.977.008-1.162 6.915 6.976-.007 1.163-6.916zm5.964-1.012l-1.504 8.947-3.59 2.55h-12.24l-2.733-2.55 1.504-8.947 3.59-2.55h12.24l2.733 2.55zM205.686 17.002l-2.369 14.043-5.431.002v-.002h-.443l-5.83-8.082-1.363 8.08-5.431.002 1.767-10.478-2.974-3.565 9.007-.002v.002h.443l5.83 8.081 1.362-8.08 5.432-.001M226.887 25.548l-1.565-3.844-2.868 3.844h4.433zm7.896 5.492l-5.655.007-.908-2.226h-8.207l-1.65 2.211-5.654.008 7.948-10.475L219.156 17h9.634l5.993 14.04z"/>
        <path fill="#F2AF36" d="M269.9 40.077h-32.393l-1.721 10.033h10.383l-5.164 30.1h11.675l5.164-30.1h10.334l1.722-10.033M67.096 50.49c-6.216 0-10.833 4.93-11 11.354-.2 7.719 4.49 9.96 8.721 9.96 4.23 0 10.322-3.536 10.536-11.802.215-8.267-5.926-9.511-8.257-9.511zm20.195 8.393c0 16.344-13.476 23.334-22.978 23.334-9.5 0-20.166-4.43-20.166-19.691 0-12.702 10.084-22.45 24.044-22.45 5.235 0 19.1 2.462 19.1 18.807zM283.301 40.077c-7.578 0-12.263 7.503-9.144 14.646l5.593 12.81c.563 1.29-.283 2.644-1.652 2.644h-15.51l-1.718 10.034h21.052c7.578 0 12.263-7.504 9.144-14.646l-5.593-12.809c-.563-1.29.283-2.646 1.652-2.646h11.157L300 40.077h-16.699"/>
        <path fill="#F2AF36" d="M120.401 40.077H88.01L86.288 50.11H96.67l-5.164 30.1h11.675l5.164-30.1h10.334l1.721-10.033M214.588 50.49c-6.216 0-10.833 4.93-11 11.354-.2 7.719 4.491 9.96 8.72 9.96 4.23 0 10.323-3.536 10.537-11.802.214-8.267-5.926-9.511-8.257-9.511zm20.195 8.393c0 16.344-13.477 23.334-22.978 23.334-9.501 0-20.166-4.43-20.166-19.691 0-12.702 10.083-22.45 24.044-22.45 5.236 0 19.1 2.462 19.1 18.807zM135.975 52.756c-.564-1.29.282-2.646 1.651-2.646h11.157l1.719-10.033h-16.699c-7.578 0-12.263 7.503-9.144 14.646l5.593 12.81c.563 1.29-.284 2.644-1.652 2.644h-15.51l-1.719 10.034h21.052c7.578 0 12.263-7.504 9.144-14.646l-5.592-12.809M30.346 40.077L27.442 56.83H15.847l2.903-16.753H6.956L0 80.21h11.795l2.313-13.347h11.596L23.39 80.21h11.795l6.955-40.134H30.346M179.844 40.077L176.94 56.83h-11.595l2.904-16.753h-11.795l-6.956 40.134h11.795l2.313-13.347h11.596l-2.313 13.347h11.794l6.956-40.134h-11.795"/>
    </g>
</svg>