<svg xmlns="http://www.w3.org/2000/svg" xmlns:xlink="http://www.w3.org/1999/xlink" width="100" height="100" viewBox="0 0 100 100">
    <defs>
        <path id="a" d="M.018.035h95.414v57.243H.018z"/>
        <path id="c" d="M.183.032h95.432v48.617H.183z"/>
    </defs>
    <g fill="none" fill-rule="evenodd">
        <g transform="translate(0 19.333)">
            <mask id="b" fill="#fff">
                <use xlink:href="#a"/>
            </mask>
            <path fill="#C2C2BD" d="M92.078 52.027l-.075-1.206c-.008-.159-.008-.355-.016-.574h-.022c-.053.182-.113.423-.174.611l-.37 1.138H91l-.37-1.168c-.037-.158-.098-.4-.143-.58h-.023c0 .188-.007.384-.015.573l-.075 1.206h-.392l.15-2.051h.611l.355 1.003c.045.158.083.309.135.52h.008c.053-.189.098-.362.143-.513l.354-1.01h.588l.16 2.05h-.408zm-2.217-2.051v.34h-.656v1.71h-.407v-1.71h-.655v-.34h1.718zM76.44 11.728C70.988 8.322 65.246 6.038 59.29 4.88L62.6 1.57A52.018 52.018 0 0 0 50.057.034C29.529.035 11.327 12.074 0 30.634c4.283 7.016 9.549 13.1 15.55 17.954l2.816-2.814a56.45 56.45 0 0 0 5.307 3.765c8.22 5.135 17.098 7.739 26.384 7.739 9.286 0 18.162-2.604 26.383-7.739 7.302-4.561 13.83-11.066 18.992-18.905-5.162-7.84-11.69-14.345-18.992-18.906" mask="url(#b)"/>
        </g>
        <path fill="#748082" d="M74.288 25.333l-2.955 2.932a54.494 54.494 0 0 1 4.814 2.66c.558.346 1.11.707 1.658 1.075l2.862-2.838a58.896 58.896 0 0 0-6.379-3.829M27 42.667l2.742-2.706v-5.255h35.925L62.985 32H27v10.667M41 47.333l2.76-2.753v-1.827h14.814L61.334 40H41v7.333M41 60l2.76-2.795v-2.077h14.814l2.76-2.795H41V60"/>
        <g transform="translate(4.333 32)">
            <mask id="d" fill="#fff">
                <use xlink:href="#c"/>
            </mask>
            <path fill="#C2C2BD" d="M26.127 10.564h-3.624l2.65-2.741h3.71l-2.736 2.741" mask="url(#d)"/>
            <path fill="#748082" d="M80.07.032L77.256 2.85c5.162 4.13 9.805 9.27 13.678 15.163H76.81l3.956-3.963-.836-1.45h-6.24l-3.12 5.413H28.863V7.823l-2.736 2.74v7.451h-11.82l3.957-3.963-.836-1.45h-6.24l-3.12 5.413H.182c5.162 7.853 11.69 14.37 18.991 18.94a54.188 54.188 0 0 0 4.91 2.728l-2.944 2.946a55.068 55.068 0 0 0 6.99 3.036l3.126-3.128a47.98 47.98 0 0 0 5.078 1.28l-3.312 3.315a51.92 51.92 0 0 0 12.536 1.536c20.528 0 38.73-12.06 50.057-30.653-4.28-7.027-9.544-13.12-15.544-17.982" mask="url(#d)"/>
        </g>
        <path fill="#FFFFFE" d="M62.32 20.667L59 24.052c4.246.842 8.381 2.275 12.383 4.281l2.95-3.011a53.685 53.685 0 0 0-12.013-4.655M80.597 29.333l-2.93 2.913A58.715 58.715 0 0 1 81.436 35l2.897-2.88a63.48 63.48 0 0 0-3.736-2.787M40.665 75.966a48.66 48.66 0 0 1-5.157-1.3l-3.175 3.178a53.827 53.827 0 0 0 4.97 1.49l3.364-3.368h-.002M28.667 71.648a53.438 53.438 0 0 1-2.168-1.157c-.005.048-.022.03-.047-.025a53.917 53.917 0 0 1-2.687-1.615A56.423 56.423 0 0 1 18.485 65l-2.818 2.876c3.16 2.63 6.525 4.91 10.06 6.79l2.267-2.327.673-.69"/>
        <path fill="#1A1919" d="M41.224 59.933h20.013v-7.478H41.224v7.478zm0-12.713h20.013v-7.26H41.224v7.26zm24.982 2.875l4.127-4.142v-6.259l-4.74-5.027H30v5.293h3.596v20.08H30v5.293h35.594l4.74-4.757v-6.258l-4.128-4.223z"/>
        <path fill="#C2C2BD" d="M15 54.223l.847 1.444h6.324l3.162-5.389-2.315-3.945L15 54.223"/>
        <path fill="#1A1919" d="M20.78 48.092l-.447-.759H17l-1.667 2.834L17 53h3.333L22 50.167l-1.22-2.075"/>
        <path fill="#C2C2BD" d="M77 54.223l.847 1.444h6.324l3.162-5.389-2.315-3.945L77 54.223"/>
        <path fill="#1A1919" d="M83.113 48.092l-.446-.759h-3.334l-1.666 2.834L79.333 53h3.334l1.666-2.833-1.22-2.075"/>
        <path fill="#FFFFFE" d="M70.27 54.333v6.376l-4.764 4.847H29.73L27 68.333h39.807l6.193-6.3V56.77l-2.73-2.438M58.574 42.753v1.827H43.759L41 47.333h20.333V40l-2.76 2.753"/>
        <path fill="#FFFFFE" d="M58.574 55.128v2.077H43.759L41 60h20.333v-7.667l-2.76 2.795"/>
    </g>
</svg>
