<svg xmlns="http://www.w3.org/2000/svg" width="300" height="100" viewBox="0 0 300 100">
    <g fill="none" fill-rule="evenodd">
        <path fill="#778081" d="M294.857 93.5l-.18-3.064c-.02-.402-.02-.9-.037-1.456h-.054c-.127.46-.271 1.073-.416 1.552l-.886 2.892h-1.013l-.886-2.97c-.09-.401-.236-1.014-.344-1.474h-.054c0 .48-.018.978-.036 1.456l-.182 3.064h-.94l.362-5.208h1.465l.85 2.546c.109.403.2.786.325 1.321h.019c.126-.478.234-.918.343-1.302l.85-2.565h1.41l.38 5.208h-.976zm-5.317-5.208v.86h-1.574V93.5h-.976v-4.348h-1.573v-.86h4.123z"/>
        <path fill="#FFFFFE" d="M32.945 65.8V44.243a1.69 1.69 0 0 1 1.132-1.58l8.54-3.095a1.69 1.69 0 0 0 1.133-1.58V31H0v6.928c0 .702.45 1.331 1.128 1.578l8.46 3.093a1.691 1.691 0 0 1 1.128 1.579v21.497c0 .702-.45 1.33-1.129 1.579l-8.459 3.092A1.692 1.692 0 0 0 0 71.924v6.993h43.75v-6.862c0-.704-.452-1.333-1.133-1.58l-8.54-3.095a1.692 1.692 0 0 1-1.132-1.58M98.18 49.91H83.118v-7.155H98.18c2.917 0 5.28 1.602 5.28 3.578 0 1.976-2.363 3.578-5.28 3.578zm29.08 20.04l-1.608-6.747c-1.23-4.75-4.551-6.977-7.072-8.012 5.534-2.282 9.247-5.294 9.247-11.156 0-8.906-8.543-13.035-19.081-13.035H51.042v6.929c0 .701.437 1.33 1.098 1.577l8.237 3.093c.66.248 1.097.876 1.097 1.579v21.497c0 .702-.436 1.33-1.097 1.579l-8.237 3.092a1.69 1.69 0 0 0-1.098 1.578v6.993h42.596v-8.032L84.22 67.38a1.688 1.688 0 0 1-1.103-1.58v-5.567h11.15c3.364 0 6.307 2.535 7.176 6.181l1.21 5.076c1.044 4.38 4.58 7.427 8.62 7.427h23.101v-3.91s-5.899-.031-7.114-5.057zM173.438 41.358c-6.373 0-11.539 5.791-11.539 12.935 0 7.143 5.166 12.933 11.539 12.933 6.372 0 11.538-5.79 11.538-12.933 0-7.144-5.166-12.935-11.538-12.935zm36.979 13.08c0 17.353-16.556 24.479-36.98 24.479-20.422 0-36.979-7.126-36.979-24.48 0-17.353 16.557-24.479 36.98-24.479s36.979 7.126 36.979 24.48zM300 39.158V31h-33.165v8.095l9.182 3.504c.65.248 1.08.876 1.08 1.579v16.896L256.087 31h-41.504v8.095l9.181 3.504c.651.248 1.081.876 1.081 1.579v21.497c0 .702-.43 1.33-1.08 1.579l-9.182 3.503v8.16h33.165v-8.032l-9.263-3.505a1.687 1.687 0 0 1-1.085-1.58V45.221l24.428 33.695h27.824V44.244c0-.703.432-1.333 1.085-1.58L300 39.159"/>
        <path fill="#778081" d="M39.563 20.055h3.671c1.42 0 2.234-.541 2.234-1.87 0-1.083-.638-1.763-2.118-1.763h-3.787v3.633zm3.599-7.259c1.473 0 1.907-.704 1.907-1.555 0-1.043-.716-1.563-1.901-1.563h-3.605v3.118h3.599zM34.375 6H44.48c4.18 0 5.938 2.158 5.938 4.6 0 2.05-1.174 3.258-2.547 3.776 1.64.538 3.17 1.842 3.17 4.098 0 3.062-2.086 5.234-6.672 5.234h-9.994V6zM60.417 23.708h5.208V6h-5.208zM78.326 13.517h3.373c1.5 0 2.34-.573 2.34-1.852 0-1.18-.771-1.845-2.342-1.845h-3.371v3.697zm0 3.678v6.513h-5.41V6h10.252c4.213 0 6.415 2.153 6.415 5.086 0 2.278-1.266 3.642-2.926 4.24.916.41 2.475 1.259 2.475 4.26v.96c0 1.007.001 2.297.234 3.162h-5.485c-.28-.745-.346-1.833-.346-3.665v-.596c0-1.647-.503-2.252-2.637-2.252h-2.572zM112.453 17.74c0-2.81.05-6.212.168-8.29h-.048c-.8 3.426-1.858 7.998-3.514 14.258h-4.428c-1.305-5.822-2.378-10.713-3.192-14.295h-.04c.101 2.067.29 5.484.29 8.522v5.773h-4.814V6h7.716c1.07 3.99 2.119 8.34 2.59 11.323h.03c.636-3.134 1.697-7.271 2.808-11.323h7.69v17.708h-5.256V17.74M126.042 23.708h5.208V6h-5.208zM139.583 23.708V6h6.135c3.587 6.343 4.8 8.644 5.844 10.923h.086c-.145-1.665-.138-4.868-.138-7.796V6h4.74v17.708h-5.795c-1.263-2.46-5.246-10-6.207-12.154h-.08c.155 2.024.163 4.373.163 7.847v4.307h-4.748M183.318 23.322h-3.854c-.124-.362-.247-.962-.33-1.54-1.105 1.207-2.562 1.926-5.731 1.926-5.693 0-8.82-3.753-8.82-8.7 0-4.816 3.115-9.008 9.902-9.008 5.478 0 8.355 2.722 8.848 5.566h-5.62c-.26-.783-1.005-1.94-3.236-1.94-2.93 0-3.984 2.352-3.984 5.098 0 2.993 1.197 5.283 4.091 5.283 2.454 0 3.33-1.37 3.33-2.68v-.175h-3.374v-3.697h8.778v9.867M190.625 6h5.363v6.395h5.942V6h5.362v17.708h-5.362v-7.231h-5.942v7.231h-5.363V6M224.815 16.309c-1.128-3.188-1.78-5.202-2.215-6.683h-.085c-.375 1.466-1.142 3.978-2.06 6.683h4.36zm-5.586 4.098l-1.093 3.301H212.5L219.039 6h7.325l6.97 17.708h-6.039l-1.175-3.301h-6.89zM255.162 17.74c0-2.81.048-6.212.167-8.29h-.048c-.8 3.426-1.858 7.998-3.513 14.258h-4.429c-1.304-5.822-2.378-10.713-3.192-14.295h-.04c.101 2.067.29 5.484.29 8.522v5.773h-4.814V6h7.716c1.069 3.99 2.119 8.34 2.59 11.323h.031c.635-3.134 1.696-7.271 2.807-11.323h7.69v17.708h-5.255V17.74M34.375 94.542h226.042V87.25H34.375z"/>
    </g>
</svg>