<svg xmlns="http://www.w3.org/2000/svg" width="300" height="100" viewBox="0 0 300 100">
    <g fill="none" fill-rule="evenodd">
        <path fill="#BEB07D" d="M59.603 7.438l2.147-4.394h.5l2.147 4.394h-4.794zm10.865 5.51L65.63 3.045h4.3V0H54.159v3.044h4.21l-4.774 9.774H51V16h8.611v-3.182h-2.636l1.27-2.598h7.51l1.333 2.729h-2.7V16H73v-3.051h-2.532zM200.603 7.438l2.147-4.394h.5l2.147 4.394h-4.794zm10.866 5.51l-4.838-9.904h4.3V0h-15.772v3.044h4.21l-4.773 9.774H192V16h8.612v-3.182h-2.636l1.268-2.598h7.512l1.333 2.729h-2.7V16H214v-3.051h-2.531zM128.603 7.438l2.147-4.394h.5l2.147 4.394h-4.794zm10.866 5.51l-4.839-9.904h4.3V0H123.16v3.044h4.21l-4.774 9.774H120V16h8.612v-3.182h-2.636l1.27-2.598h7.51l1.332 2.729h-2.7V16H142v-3.051h-2.531zM76 7.24h2.953V2.85h4.07v9.288h-2.526V15h8.006v-2.861h-2.526V2.85h4.07V7.24H93V0H76v7.24M173 7.24h2.953V2.85h4.07v9.288h-2.526V15h8.006v-2.861h-2.526V2.85h4.07V7.24H190V0h-17v7.24M109.905 8.376v4.573h-7.163V3.051h2.646V0H97v3.05h2.647v9.9H97V16h16V8.376h-3.095M156.942 0v3.05h2.543v8.96L150.537 0H145v3.05h2.543v9.9H145V16h8.293v-3.05h-2.778V5l8.196 11h3.746V3.05H165V0h-8.058"/>
        <path fill="#FFFFFE" d="M78 77.98v-7.297H43.066c-1.265 0-2.29-1.043-2.29-2.328V3.098C40.775 1.94 39.85 1 38.71 1h-9.646C27.924 1 27 1.94 27 3.098v75.574C27 79.958 28.025 81 29.291 81h45.736C76.67 81 78 79.648 78 77.98M265.279 57.022h-7.26a2.816 2.816 0 0 1-2.824-2.807V36.642l12.318 15.855c1.433 1.846.11 4.525-2.234 4.525zm-41.804-3.63l-5.693 2.726c-1.036.495-2.237-.256-2.237-1.4V31.477a2.353 2.353 0 0 1 2.36-2.347h4.394a2.353 2.353 0 0 1 2.358 2.347v20.045c0 .797-.46 1.525-1.182 1.87zm54.607-2.927l-21.607-27.006a4.275 4.275 0 0 0-3.307-1.564h-11.68c-1.26 0-1.963 1.448-1.179 2.43l2.341 2.93V43.06c0 .707-.406 1.35-1.046 1.656l-5.616 2.688V2.576c0-.87-.709-1.576-1.584-1.576h-8.086a1.58 1.58 0 0 0-1.585 1.576v18.46c0 .474-.387.86-.865.86H210.69c-4.246 0-7.689 3.424-7.689 7.648V55.58c0 6.697 8.989 12.925 16.353 9.4l20.652-9.842c1.226-.583 2.645.306 2.645 1.658v4.967a2.816 2.816 0 0 0 2.823 2.808h25.771c7.318 0 11.395-8.412 6.838-14.107z"/>
        <path fill="#FFFFFE" d="M108.052 91.052l-9.396-8.06c-.806-.692-.305-1.99.767-1.99h9.396a1.15 1.15 0 0 1 1.162 1.136v8.059c0 .977-1.178 1.498-1.93.855zm.673-38.22l-5.585 2.626c-1.03.485-2.226-.25-2.226-1.368V31.368c0-1.268 1.05-2.295 2.348-2.295h4.372c1.297 0 2.347 1.027 2.347 2.295v19.51c0 .833-.488 1.592-1.256 1.954zM61.483 31.368c0-1.268 1.05-2.295 2.347-2.295h4.372c1.297 0 2.348 1.027 2.348 2.295v4.848a2.29 2.29 0 0 1-1.33 2.068l-6.833 3.214c-.419.196-.904-.102-.904-.557v-9.573zm78.407 0c0-1.268 1.05-2.295 2.347-2.295h4.372c1.297 0 2.348 1.027 2.348 2.295v4.848c0 .882-.517 1.685-1.33 2.068l-6.833 3.214c-.418.196-.904-.102-.904-.557v-9.573zM121.256 69.62V56.365l5.092-2.32c.494-.225 1.059.128 1.059.66v.229c0 6.547 8.943 12.636 16.272 9.19l21.645-9.84c.493-.223 1.058.13 1.058.661v7.237c0 .852.706 1.542 1.577 1.542h9.33c.87 0 1.576-.69 1.576-1.542V29.877c0-.445.368-.804.822-.804h4.69c1.296 0 2.347 1.027 2.347 2.295v30.814c0 .852.706 1.542 1.577 1.542h9.33c.87 0 1.576-.69 1.576-1.542V31.316c0-5.145-4.267-9.316-9.531-9.316H168.64c-1.247 0-2.258.987-2.258 2.206V43.26c0 .665-.394 1.27-1.01 1.553l-23.256 10.644c-1.031.485-2.226-.25-2.226-1.368v-3.104c0-.665.39-1.27 1.002-1.559l15.543-6.974c2.755-1.296 4.508-4.02 4.508-7.01V24.206c0-1.219-1.01-2.206-2.257-2.206h-23.629c-4.225 0-7.65 3.348-7.65 7.477V42.97c0 .658-.387 1.259-.994 1.544l-5.157 2.425V24.206c0-1.219-1.01-2.206-2.257-2.206H96.082c-4.226 0-7.65 3.348-7.65 7.477v13.599c0 .666-.395 1.271-1.013 1.554L63.71 55.458c-1.031.485-2.226-.25-2.226-1.368v-3.085c0-.676.396-1.294 1.02-1.586l15.524-6.966c2.756-1.296 4.51-4.02 4.51-7.01V24.206c0-1.219-1.011-2.206-2.258-2.206H56.65C52.425 22 49 25.348 49 29.477v25.457c0 6.547 8.943 12.636 16.271 9.19l22.102-10.032c.493-.225 1.058.127 1.058.66v.182c0 6.547 8.944 12.636 16.272 9.19l3.648-1.71c.755-.353 1.63.185 1.63 1.004v6.203a1.15 1.15 0 0 1-1.162 1.136H93.696c-6.922 0-10.149 8.385-4.942 12.845l16.38 14.025c6.282 5.38 16.122 1.02 16.122-7.144v-8.345c0-.628.52-1.137 1.162-1.137h149.513c1.695 0 3.069-1.342 3.069-2.999v-7.245H122.418a1.149 1.149 0 0 1-1.162-1.136zM273.062 93l-.174-2.942c-.017-.385-.017-.864-.034-1.397h-.052c-.122.442-.26 1.03-.4 1.49l-.85 2.775h-.972l-.851-2.849c-.087-.386-.226-.974-.33-1.416h-.052c0 .46-.018.938-.034 1.397L269.139 93h-.903l.347-5h1.406l.816 2.444c.105.387.191.754.313 1.269h.017c.121-.46.226-.882.33-1.25L272.28 88h1.354l.365 5h-.938zm-5.104-5v.827h-1.51V93h-.938v-4.173H264V88h3.958z"/>
    </g>
</svg>