<svg xmlns="http://www.w3.org/2000/svg" width="100" height="100" viewBox="0 0 100 100">
    <defs>
        <path id="a" d="M.019.15h99.807V91H.02z"/>
    </defs>
    <g fill="none" fill-rule="evenodd">
        <path fill="#FFFFFE" d="M85.135 86.667l-.098-1.569c-.01-.206-.01-.46-.02-.745h-.029c-.069.235-.148.55-.226.794l-.482 1.48h-.551l-.483-1.52c-.048-.205-.127-.519-.186-.754h-.03c0 .245-.01.5-.02.745l-.098 1.569h-.511L82.597 84h.797l.463 1.304c.059.206.108.402.177.676h.01c.069-.245.127-.47.186-.666L84.693 84h.767l.207 2.667h-.532zM82.243 84v.441h-.856v2.226h-.53V84.44H80V84h2.243zM47.667 32h4.666v-1.667h-4.666zM47.667 35.667h4.666V34h-4.666zM47.667 28.667h4.666V27h-4.666zM47.667 39h4.666v-1.667h-4.666zM69.821 70.186v4.306H54.473v-4.306h5.08l-3-4.52H43.096l-2.86 4.307h4.939v4.519H29.827v-4.52h4.754l2.858-4.305H15l3.931 14h61.743l3.993-14H62.209l3 4.52h4.612"/>
        <path fill="#BEB07D" d="M42.553 32.669c0 5.05 2.72 9.856 7.28 12.877 4.56-3.02 7.28-7.827 7.28-12.877 0-5.051-2.72-9.857-7.28-12.879-4.56 3.022-7.28 7.828-7.28 12.879zm.88 23.92l-3.403 5.078H13.936l-8.27-29.168c4.47.572 9.717 1.948 14.173 5.109-1.134 1.42-1.795 3.11-1.795 4.924 0 5.04 5.075 9.126 11.336 9.126 6.26 0 11.335-4.086 11.335-9.126 0-3.304-2.182-6.199-5.45-7.8 0-3.703 5.917-14.904 14.568-21.065 8.652 6.161 14.568 17.362 14.568 21.065-3.267 1.601-5.45 4.496-5.45 7.8 0 5.04 5.076 9.126 11.336 9.126 6.26 0 11.335-4.086 11.335-9.126 0-1.82-.665-3.515-1.806-4.939C83.723 34.661 90.096 32.867 94 32.5l-8.399 29.168H59.474l-3.404-5.078h8.022v-4.244H35.575v4.244h7.858zm6.982 0l3.404 5.078h-8.134l3.403-5.078h1.327z"/>
    </g>
</svg>
