<svg xmlns="http://www.w3.org/2000/svg" width="217" height="71" viewBox="0 0 217 71">
    <g fill="none" fill-rule="evenodd">
        <path fill="#FFF" d="M102.21 23.74h-5.452v17.567h12.476l1.193-3.456h-8.218zM118.481 23.74h-5.451v17.567h12.476l1.193-3.456h-8.218zM129.466 23.739h5.647v17.578h-5.647z"/>
        <path fill="#FFF" fill-rule="nonzero" d="M195.11 23.74h-11.644a1.975 1.975 0 0 0-2.232 2.231v13.115a1.975 1.975 0 0 0 2.232 2.232h11.644a1.975 1.975 0 0 0 2.232-2.232v-4.053h-5.462v2.818h-5.194V27.195h5.194v2.87h5.462v-4.114a1.975 1.975 0 0 0-2.232-2.212z"/>
        <path fill="#FFF" d="M206.517 37.851v-3.507h6.099l1.193-3.466h-7.292v-3.683h8.454V23.74H200.87v17.568h14.461v-3.456zM172.162 35.054l-5.811-11.315h-5.945v17.568h5.03V30.014l5.893 11.293h5.894V23.74h-5.06z"/>
        <path fill="#FFF" fill-rule="nonzero" d="M144.082 23.74l-6.49 17.567h5.503l1.152-3.476h7.148l1.132 3.476h5.606l-6.511-17.568h-7.54zm6.172 10.645h-4.896l2.458-7.426 2.438 7.426zM80.229 23.74l-6.532 17.567H79.2l1.162-3.476h7.149l1.131 3.476h5.606L87.727 23.74h-7.498zM86.4 34.384h-4.917l2.459-7.426 2.458 7.426z"/>
        <path fill="#CE0E2D" fill-rule="nonzero" d="M132.171 45.555h-4.926a.833.833 0 0 0-.947.947v5.554a.823.823 0 0 0 .947.936h4.926a.833.833 0 0 0 .947-.936v-1.718h-2.315v1.193h-2.232v-4.505h2.202v1.214h2.314v-1.738a.843.843 0 0 0-.916-.947zm-4.494 1.276s-.155-.062 0-.062h.061c-.04.052-.072.072-.061.062z"/>
        <path fill="#CE0E2D" d="M99.638 49.845l-1.615-4.29H95.05v7.437h2.068V47.89l2.036 4.763h.967l2.057-4.783v5.122h2.088v-7.437h-2.972zM108.442 50.05h2.572l.514-1.47h-3.086v-1.554h3.57v-1.47h-5.966v7.436h6.12v-1.46h-3.724z"/>
        <path fill="#CE0E2D" fill-rule="nonzero" d="M119.49 50.328a.833.833 0 0 0 .945-.946v-2.88a.843.843 0 0 0-.946-.947h-6.017v7.437h2.314v-2.664h.854l1.646 2.664h2.407l-1.687-2.664h.483zm-1.359-1.46h-2.345v-1.842h2.345v1.841z"/>
        <path fill="#CE0E2D" d="M122.112 45.555h2.397v7.437h-2.397zM148.413 50.349l-2.459-4.794h-2.52v7.437h2.13v-4.773l2.499 4.773h2.489v-7.437h-2.14zM155.613 52.992h2.396v-2.654h2.602l.504-1.47h-3.106v-1.842h3.57v-1.47h-5.966z"/>
        <path fill="#CE0E2D" fill-rule="nonzero" d="M168.614 45.555h-4.948a.833.833 0 0 0-.946.947v5.554a.823.823 0 0 0 .946.936h4.948a.833.833 0 0 0 .946-.936v-5.554a.843.843 0 0 0-.946-.947zm-1.348 5.976h-2.242v-4.505h2.242v4.505z"/>
        <path fill="#CE0E2D" d="M79.673 50.74h1.718v-1.76h1.862l.37-1.049H81.39v-1.326h2.561v-1.05h-4.279z"/>
        <path fill="#CE0E2D" fill-rule="nonzero" d="M74.19 50.74h3.55a.597.597 0 0 0 .678-.68v-3.774a.597.597 0 0 0-.679-.68h-3.548a.597.597 0 0 0-.679.68v3.826a.597.597 0 0 0 .679.627zm1.03-4.115h1.604v3.086h-1.656l.051-3.086zM177.079 45.555h-4.948a.843.843 0 0 0-.946.947v5.554a.833.833 0 0 0 .946.936h4.948a.823.823 0 0 0 .946-.936v-5.554a.833.833 0 0 0-.946-.947zm-1.348 5.976h-2.242v-4.505h2.242v4.505z"/>
        <path fill="#CE0E2D" d="M178.92 47.026h2.294v5.966h2.304v-5.966h2.304v-1.47h-6.902z"/>
        <path fill="#CE0E2D" fill-rule="nonzero" d="M192.765 45.555h-5.966v7.437h5.966a.833.833 0 0 0 .946-.936v-1.975a.72.72 0 0 0-.73-.812c.483 0 .73-.299.73-.834v-1.933a.843.843 0 0 0-.946-.947zm-1.266 5.976h-2.396v-1.656h2.396v1.656zm0-2.87h-2.396v-1.635h2.396v1.636z"/>
        <path fill="#CE0E2D" d="M206.558 45.555h-2.315v7.437h5.287l.504-1.46h-3.476zM213.439 51.531v-5.976h-2.304v7.437h5.287l.504-1.46z"/>
        <path fill="#CE0E2D" fill-rule="nonzero" d="M88.046 45.555l-2.747 7.437h2.325l.483-1.47h3.086l.473 1.47h2.376l-2.808-7.437h-3.188zm2.612 4.516h-2.057l1.029-3.148 1.028 3.148zM136.625 45.555l-2.746 7.437h2.324l.494-1.47h3.024l.484 1.47h2.365l-2.756-7.437h-3.189zm2.623 4.516h-2.057l1.028-3.148 1.029 3.148zM197.229 45.555l-2.747 7.437h2.325l.494-1.47h3.024l.483 1.47h2.376l-2.767-7.437h-3.188zm2.622 4.516h-2.057l1.029-3.148 1.028 3.148z"/>
        <path fill="#FEFEFE" d="M59.773 35.505C56.457 19.242 45.02 5.945 29.887 0 14.753 5.944 3.317 19.242 0 35.505c3.315 16.262 14.752 29.56 29.886 35.504 15.133-5.945 26.57-19.242 29.886-35.504"/>
        <path fill="#CE0E2D" d="M73.512 51.768h7.91v1.203h-7.91z"/>
        <path fill="#002E6D" fill-rule="nonzero" d="M15.737 36.761H2.654a46.728 46.728 0 0 0 27.175 31.845v-8.332c-8.435-5.4-13.948-13.906-14.092-23.513zm-7.714 8.373l.874-2.675-2.273-1.656h2.808l.854-2.684.874 2.684h2.818l-2.283 1.656.874 2.675-2.283-1.656-2.263 1.656zm8.732 8.845l-2.005-1.46-2.006 1.46.761-2.355-2.006-1.46h2.48l.77-2.356.762 2.355h2.479l-2.006 1.461.771 2.355zm5.874 6.892l-1.821-1.317-1.82 1.317.699-2.14-1.831-1.326h2.253l.699-2.14.7 2.14h2.252l-1.82 1.326.689 2.14z"/>
        <path fill="#CE0E2D" d="M57.086 36.761H44.002a25.354 25.354 0 0 1-.802 5.812h12.003a49.773 49.773 0 0 0 1.883-5.812zM32.75 58.227h12.343a47.314 47.314 0 0 0 4.793-5.77H38.427a32.266 32.266 0 0 1-5.677 5.77zM39.878 50.4h11.396a48.919 48.919 0 0 0 3.086-5.76H42.634a27.175 27.175 0 0 1-2.756 5.76zM29.829 68.606a44.815 44.815 0 0 0 13.155-8.332H29.829v8.332z"/>
        <path fill="#002E6D" fill-rule="nonzero" d="M56.993 34.18A46.666 46.666 0 0 0 29.83 2.714 46.666 46.666 0 0 0 2.746 34.18H15.83a25.714 25.714 0 0 1 1.872-7.652h24.336a25.714 25.714 0 0 1 1.872 7.652h13.083zM21.271 20.313a32.688 32.688 0 0 1 8.558-7.858 32.688 32.688 0 0 1 8.598 7.858H21.271z"/>
        <path fill="#B0B3B2" d="M18.226 36.37c0 8.116 4.217 15.655 11.644 20.9V46.688h2.376l.668-2.222h-6.788l.679-2.211h5.44l.67-2.222h-6.79l.68-2.211h5.44l.67-2.222h-6.79l.68-2.212h5.44l.67-2.232h-6.79l.69-2.221H29.9v-2.407h-9.484a23.307 23.307 0 0 0-2.19 9.843zM29.829 15.429a30.353 30.353 0 0 0-5.4 4.854h5.4V15.43z"/>
    </g>
</svg>
