<svg xmlns="http://www.w3.org/2000/svg" xmlns:xlink="http://www.w3.org/1999/xlink" width="100" height="100" viewBox="0 0 100 100">
    <defs>
        <path id="a" d="M0 .05h99.894v77.263H0z"/>
        <path id="c" d="M0 .05h99.894v77.263H0z"/>
    </defs>
    <g fill="none" fill-rule="evenodd">
        <g transform="translate(0 11.333)">
            <mask id="b" fill="#fff">
                <use xlink:href="#a"/>
            </mask>
            <path fill="#BBBFBD" d="M93.947 59.089h.414l.057 1.924h-.349l-.028-1.286-.395 1.051h-.433l-.396-1.051-.028 1.286h-.348l.056-1.924h.415l.517 1.38.518-1.38zm-2.787.32h-.564v-.32h1.478v.32h-.565v1.604h-.349v-1.605z" mask="url(#b)"/>
            <path fill="#FFFFFE" d="M94.927 31.263l1.404-2.253C89.543 8.504 80.866 2.05 75.565.05c.691 2.755.797 5.386.575 7.767-37.406-18.464-30.38 9.554-30.38 9.554C32.512 8.918 26.35.793 26.35.793c-2.24 12.702 3.213 20.623 3.213 20.623C9.298 12.382.98 2.18.98 2.18c-5.13 16.351 11.569 28.94 11.569 28.94 5.097 15.781 17.69 22.669 42.23 30.485 24.539 7.816 29.877 15.728 29.877 15.728 3.246-9.172 3.114-16.88 1.54-23.048l13.539 1.663c.97-10.34-2.702-20.086-4.807-24.685" mask="url(#b)"/>
        </g>
        <path fill="#223E77" d="M92.09 54.588s1.425 2.912.202 4.898c-1.177-1.658-.153-2.253-.202-4.898m-9.598-20.001l-1.344-1.2c4.477.154 4.765 6.147 6.545 7.955-5.982-1.874-5.2-6.755-5.2-6.755m.884 25.898L95.552 62c1.063-5.421-5.608-22.44-5.608-22.44l.68-1.938c-2.686-6.8-6.195-13.807-10.645-19.289 0 0 .352 2.598-.644 5.724-14.957-4.404-21.555.647-23.668 9.587 2.09 1.915 4.771 3.782 8.082 5.471l.825.42c-.519-2.18-.743-5.7 2.222-8.013-3.44 8.607 22.51 17.511 13.96 23.3 0 0 1.45 1.62 2.621 5.663"/>
        <path fill="#223E77" d="M55.64 56.976c8.538 3.82 15.945 7.932 19.983 13.06-5.485-3.839-11.985-6.396-19.14-8.906.57 2.588 1.21 5.12 1.86 7.52 7.507 2.377 15.376 5.896 24.035 11.683 1.662-8.05-3.99-15.594-13.686-22.185a27.968 27.968 0 0 0-.586-.413c-5.893-4.055-8.095-7.289-8.91-9.286 8.146 4.695 16.55 10.013 22.8 17.442-1.367-12.254-14.163-20.06-27.18-27.558-.961 5.406-.384 12.055.825 18.643"/>
        <path fill="#448CB9" d="M49.477 58.498C40.93 55.535 30.53 51.592 21.333 46c6.255 10.376 18.159 16.19 29.334 20a46.076 46.076 0 0 0-.149-.197c-.438-2.578-.782-5.01-1.041-7.305M48.494 46.523C31.33 37.73 11.824 29.08 5 22.333 5.49 37.518 28.82 45.831 48.667 54a79.303 79.303 0 0 1-.173-7.477"/>
        <g transform="translate(0 11.333)">
            <mask id="d" fill="#fff">
                <use xlink:href="#c"/>
            </mask>
            <path fill="#448CB9" d="M31.57 10.72c.299 8.879 7.799 14.595 17.407 20.295.245-2.606.657-4.909 1.203-6.944-7.171-4.162-14.015-8.376-18.61-13.351M75.306 10.463C54.698-.439 45.633 8.434 52.33 18.472c7.262-13.713 22.953-8.007 22.976-8.009" mask="url(#d)"/>
            <path fill="#BBBFBD" d="M94.927 31.263l1.404-2.253C89.543 8.504 80.866 2.05 75.565.05c.691 2.755.797 5.386.575 7.767-37.406-18.464-30.38 9.554-30.38 9.554C32.512 8.918 26.35.793 26.35.793c-2.24 12.702 3.213 20.623 3.213 20.623C9.298 12.382.98 2.18.98 2.18c-5.13 16.351 11.569 28.94 11.569 28.94 5.097 15.781 17.69 22.669 42.23 30.485 24.539 7.816 29.877 15.728 29.877 15.728 3.246-9.172 3.114-16.88 1.54-23.048l13.539 1.663c.97-10.34-2.702-20.086-4.807-24.685" mask="url(#d)"/>
        </g>
        <path fill="#223E77" d="M92.09 54.588s1.425 2.912.202 4.898c-1.177-1.658-.153-2.253-.202-4.898m-9.598-20.001l-1.344-1.2c4.477.154 4.765 6.147 6.545 7.955-5.982-1.874-5.2-6.755-5.2-6.755m.884 25.898L95.552 62c1.063-5.421-5.608-22.44-5.608-22.44l.68-1.938c-2.686-6.8-6.195-13.807-10.645-19.289 0 0 .352 2.598-.644 5.724-14.957-4.404-21.555.647-23.668 9.587 2.09 1.915 4.771 3.782 8.082 5.471l.825.42c-.519-2.18-.743-5.7 2.222-8.013-3.44 8.607 22.51 17.511 13.96 23.3 0 0 1.45 1.62 2.621 5.663"/>
        <path fill="#223E77" d="M55.64 56.976c8.538 3.82 15.945 7.932 19.983 13.06-5.485-3.839-11.985-6.396-19.14-8.906.57 2.588 1.21 5.12 1.86 7.52 7.507 2.377 15.376 5.896 24.035 11.683 1.662-8.05-3.99-15.594-13.686-22.185a27.968 27.968 0 0 0-.586-.413c-5.893-4.055-8.095-7.289-8.91-9.286 8.146 4.695 16.55 10.013 22.8 17.442-1.367-12.254-14.163-20.06-27.18-27.558-.961 5.406-.384 12.055.825 18.643"/>
        <path fill="#448CB9" d="M49.477 58.498C40.93 55.535 30.53 51.592 21.333 46c6.255 10.376 18.159 16.19 29.334 20a46.076 46.076 0 0 0-.149-.197c-.438-2.578-.782-5.01-1.041-7.305M48.494 46.523C31.33 37.73 11.824 29.08 5 22.333 5.49 37.518 28.82 45.831 48.667 54a79.303 79.303 0 0 1-.173-7.477"/>
        <g fill="#448CB9">
            <path d="M31.504 21.953c.298 8.9 7.794 14.63 17.396 20.344.245-2.612.656-4.92 1.203-6.96-7.168-4.173-14.007-8.397-18.599-13.384M75.213 21.696c-20.596-10.928-29.655-2.034-22.962 8.028 7.258-13.746 22.939-8.026 22.962-8.028"/>
        </g>
    </g>
</svg>
