<svg xmlns="http://www.w3.org/2000/svg" width="300" height="100" viewBox="0 0 300 100">
    <g fill="none" fill-rule="evenodd">
        <path fill="#BBBFBD" d="M299.26 77h.65l.09 4h-.547l-.044-2.673-.62 2.185h-.68l-.622-2.185-.044 2.673h-.547l.089-4h.65l.813 2.869.813-2.869zm-4.374.663H294V77h2.32v.663h-.887V81h-.547v-3.337z"/>
        <path fill="#FFFFFE" d="M81.645 22.647L83 19h-9.12c-1.448 0-2.737.851-3.208 2.12l-.594 1.598c-.314.845-1.307 2.622 3.905 3.69 2.294.47 3.122.974 3.38 1.57H70.76c-.92 0-1.74-.127-2.406-.625L67 31h12.225l1.382-3.718c.314-.845 1.307-2.622-3.905-3.69-2.294-.47-3.122-.973-3.38-1.57h5.917c.92 0 1.74.127 2.406.625M118.759 28.004h-4.308L117.828 19h-5.398c.771.993.225 2.205.078 2.646L109 31h10.682L121 27.484a4.995 4.995 0 0 1-2.241.52M129.29 19L128 22.516a4.785 4.785 0 0 1 2.191-.52h2.408L129.3 31h5.276c-.754-.993-.22-2.205-.076-2.646l2.32-6.332h1.471c.909 0 1.716.127 2.373.625L142 19h-12.71M226.25 22.022c.918 0 1.734.127 2.398.625L230 19h-11.612c.762.993.223 2.205.078 2.646L215 31h11.463l1.303-3.516a4.886 4.886 0 0 1-2.215.52h-5.166l.698-1.883h2.074c.872 0 1.647.12 2.278.593l1.116-3.01h-4.572l.623-1.682h3.648M96.928 24.459h-3.494l.877-2.463h3.494l-.877 2.463zm4.937-2.334c.545-1.53-.63-3.125-2.304-3.125h-5.973c-1.386 0-2.62.851-3.072 2.12L87 31h5.123c-.732-.993-.214-2.205-.075-2.646l.318-.892h3.493L94.6 31h5.123c-.732-.993-.214-2.205-.075-2.646l2.217-6.23zM181.928 24.459h-3.494l.877-2.463h3.494l-.877 2.463zm4.937-2.334c.545-1.53-.63-3.125-2.304-3.125h-5.973c-1.386 0-2.62.851-3.072 2.12L172 31h5.123c-.732-.993-.214-2.205-.075-2.646l.317-.892h3.494L179.6 31h5.123c-.732-.993-.214-2.205-.075-2.646l2.217-6.23zM162.759 28.004h-4.308L161.828 19h-5.398c.771.993.225 2.205.078 2.646L153 31h10.682L165 27.484a4.995 4.995 0 0 1-2.241.52M203.965 25.77h-1.528L210 19h-6.268c.62.67-.115 1.435-.667 1.931l-3.294 2.95L201.495 19H196.3c.742 1.014.217 2.253.075 2.703L193 31.26h5.195c-.743-1.015-.218-2.253-.076-2.704l.648-1.834c2.16 3.53 5.31 5.279 9.338 5.279-1.452-.708-3.827-2.7-4.14-6.23M124.811 64.262h-7.76L126.377 38H111.47c2.13 2.896.623 6.432.217 7.72L102 73h25.359L131 62.746c-2.631 1.358-4.872 1.516-6.189 1.516M154.811 64.262h-7.76L156.377 38H141.47c2.13 2.896.623 6.432.217 7.72L132 73h25.359L161 62.746c-2.631 1.358-4.872 1.516-6.189 1.516M44.607 38L41 48.255c2.607-1.358 4.827-1.517 6.131-1.517h3.276L41.17 73h14.767c-2.11-2.896-.617-6.432-.215-7.719l6.495-18.466h1.4c2.542 0 4.802.368 6.641 1.823L74 38H44.607M175.463 65.281L185 38h-14.676c2.096 2.896.613 6.432.213 7.72L161 73h14.676c-2.096-2.896-.613-6.432-.213-7.719M201.387 64.262h-7.057l6.284-17.524h7.056l-6.283 17.524zM212.832 38H198.49c-4.075 0-7.7 2.483-9.028 6.182l-7.066 19.705c-1.6 4.464 1.854 9.113 6.772 9.113h14.342c4.075 0 7.701-2.483 9.028-6.182l7.066-19.705c1.601-4.464-1.854-9.113-6.772-9.113zM24.5 64.185H10.378c-2.54 0-4.799-.368-6.638-1.822L0 73h30.583l3.813-10.845c3.768-11.056-17.263-12.32-16.006-15.34h12.232c2.54 0 4.8.368 6.638 1.823L41 38H18.984c-3.996 0-7.55 2.483-8.851 6.182l-1.64 4.663C4.727 59.9 25.757 61.165 24.5 64.185M90.437 53.853H83.53l2.496-7.115h6.906l-2.496 7.115zm14.176-6.74C106.18 42.649 102.798 38 97.985 38H83.95c-3.988 0-7.536 2.483-8.835 6.182L65 73h14.734c-2.104-2.896-.616-6.431-.214-7.719l1.035-2.95h6.905L83.717 73H98.45c-2.105-2.896-.616-6.432-.215-7.719l6.377-18.168zM250.383 65.281L260 38h-14.8c2.115 2.896.619 6.432.216 7.72l-2.867 8.133L238.803 38h-12.401c2.114 2.896.618 6.432.215 7.72L217 73h14.8c-2.115-2.896-.62-6.432-.216-7.719l2.867-8.133L238.197 73h12.401c-2.114-2.896-.618-6.432-.215-7.719M279.5 64.185h-14.122c-2.54 0-4.8-.368-6.638-1.822L255 73h30.583l3.814-10.845c3.767-11.056-17.264-12.32-16.007-15.34h12.232c2.54 0 4.8.368 6.638 1.823L296 38h-22.016c-3.995 0-7.551 2.483-8.851 6.182l-1.64 4.663c-3.767 11.056 17.264 12.32 16.006 15.34"/>
        <path fill="#BBBFBD" d="M31.73 54H13.508c3.003 4.65 14.137 5.127 11.292 10.253H10.883c-1.312 0-2.546-.106-3.686-.409L4 73h26.796l3.758-10.761c1.256-3.71-.285-6.308-2.824-8.239M286.73 54h-18.222c3.003 4.65 14.137 5.127 11.292 10.253h-13.917c-1.312 0-2.546-.106-3.685-.41L259 73h26.796l3.758-10.761c1.256-3.71-.285-6.308-2.824-8.239M204.942 64.329h-10.277L198.312 54h-8.41l-3.515 9.957c-1.565 4.43 1.811 9.043 6.617 9.043h10.63c3.983 0 7.526-2.463 8.822-6.134L217 54h-8.41l-3.648 10.329M221 73h11.284c-2.093-2.874-.612-6.382-.213-7.66l2.84-8.07L236 54h-8.316L221 73M255 54h-17l4.409 19h8.874c-2.06-2.874-.603-6.382-.21-7.66L255 54M59 54h-8.344L44 73h11.24c-2.086-2.874-.61-6.382-.213-7.66L59 54M180 54h-8.343L165 73h11.239c-2.085-2.874-.61-6.382-.212-7.66L180 54M102 54H74.748L68 73h11.393c-2.113-2.874-.618-6.382-.215-7.66l1.04-2.926h10.336L86.794 73h11.394c-2.113-2.874-.618-6.382-.215-7.66L102 54M147.364 64.329L150.977 54h-8.33L136 73h21.44L161 62.825c-2.572 1.347-4.763 1.504-6.05 1.504h-7.586M117.364 64.329L120.977 54h-8.33L106 73h21.44L131 62.825c-2.572 1.347-4.763 1.504-6.05 1.504h-7.586"/>
    </g>
</svg>